<svg width="161" height="24" viewBox="0 0 161 24" fill="none" xmlns="http://www.w3.org/2000/svg">
<path d="M0.193182 18V4.90909H4.65909V7.39773H4.79545C5.06818 6.57955 5.53409 5.93182 6.19318 5.45454C6.85227 4.97727 7.63636 4.73864 8.54545 4.73864C9.46591 4.73864 10.2585 4.98295 10.9233 5.47159C11.5881 5.95455 11.9886 6.59659 12.125 7.39773H12.2614C12.483 6.59659 12.9545 5.95455 13.6761 5.47159C14.3977 4.98295 15.2443 4.73864 16.2159 4.73864C17.4716 4.73864 18.4886 5.14205 19.267 5.94886C20.0511 6.75568 20.4432 7.82955 20.4432 9.17045V18H15.7386V10.3636C15.7386 9.78977 15.5938 9.34091 15.304 9.01705C15.0142 8.6875 14.625 8.52273 14.1364 8.52273C13.6534 8.52273 13.2699 8.6875 12.9858 9.01705C12.7074 9.34091 12.5682 9.78977 12.5682 10.3636V18H8.06818V10.3636C8.06818 9.78977 7.9233 9.34091 7.63352 9.01705C7.34375 8.6875 6.95455 8.52273 6.46591 8.52273C6.14205 8.52273 5.86364 8.59659 5.63068 8.74432C5.39773 8.89205 5.21591 9.10511 5.08523 9.38352C4.96023 9.65625 4.89773 9.98295 4.89773 10.3636V18H0.193182ZM26.4112 18.2045C25.576 18.2045 24.8374 18.0682 24.1953 17.7955C23.5589 17.517 23.0589 17.0966 22.6953 16.5341C22.3317 15.9716 22.1499 15.2557 22.1499 14.3864C22.1499 13.6705 22.272 13.0597 22.5163 12.554C22.7607 12.0426 23.1016 11.625 23.5391 11.3011C23.9766 10.9773 24.4851 10.7301 25.0646 10.5597C25.6499 10.3892 26.2805 10.2784 26.9567 10.2273C27.6896 10.1705 28.2777 10.1023 28.7209 10.0227C29.1697 9.9375 29.4936 9.82102 29.6925 9.6733C29.8913 9.51989 29.9908 9.31818 29.9908 9.06818V9.03409C29.9908 8.69318 29.8601 8.43182 29.5987 8.25C29.3374 8.06818 29.0021 7.97727 28.593 7.97727C28.1442 7.97727 27.7777 8.0767 27.4936 8.27557C27.2152 8.46875 27.0476 8.76705 26.9908 9.17045H22.6612C22.718 8.375 22.9709 7.64205 23.4197 6.97159C23.8743 6.29545 24.5362 5.75568 25.4055 5.35227C26.2749 4.94318 27.3601 4.73864 28.6612 4.73864C29.5987 4.73864 30.4396 4.84943 31.1839 5.07102C31.9283 5.28693 32.5618 5.59091 33.0845 5.98295C33.6072 6.36932 34.005 6.82386 34.2777 7.34659C34.5561 7.86364 34.6953 8.42614 34.6953 9.03409V18H30.2976V16.1591H30.1953C29.9339 16.6477 29.6158 17.0426 29.2408 17.3438C28.8714 17.6449 28.4482 17.8636 27.9709 18C27.4993 18.1364 26.9794 18.2045 26.4112 18.2045ZM27.9453 15.2386C28.3033 15.2386 28.6385 15.1648 28.951 15.017C29.2692 14.8693 29.5277 14.6562 29.7266 14.3778C29.9254 14.0994 30.0249 13.7614 30.0249 13.3636V12.2727C29.8999 12.3239 29.7663 12.3722 29.6243 12.4176C29.4879 12.4631 29.3402 12.5057 29.1811 12.5455C29.0277 12.5852 28.8629 12.6222 28.6868 12.6562C28.5163 12.6903 28.3374 12.7216 28.1499 12.75C27.7862 12.8068 27.4879 12.9006 27.255 13.0312C27.0277 13.1562 26.8572 13.3125 26.7436 13.5C26.6357 13.6818 26.5817 13.8864 26.5817 14.1136C26.5817 14.4773 26.7095 14.7557 26.9652 14.9489C27.2209 15.142 27.5476 15.2386 27.9453 15.2386ZM48.9091 9.17045H44.5795C44.5568 8.90341 44.4631 8.6733 44.2983 8.48011C44.1335 8.28693 43.9205 8.1392 43.6591 8.03693C43.4034 7.92898 43.1193 7.875 42.8068 7.875C42.4034 7.875 42.0568 7.94886 41.767 8.09659C41.4773 8.24432 41.3352 8.45455 41.3409 8.72727C41.3352 8.92045 41.4176 9.09943 41.5881 9.2642C41.7642 9.42898 42.1023 9.55682 42.6023 9.64773L45.2614 10.125C46.6023 10.3693 47.5994 10.7812 48.2528 11.3608C48.9119 11.9347 49.2443 12.7045 49.25 13.6705C49.2443 14.6023 48.9659 15.4119 48.4148 16.0994C47.8693 16.7812 47.1222 17.3097 46.1733 17.6847C45.2301 18.054 44.1534 18.2386 42.9432 18.2386C40.9432 18.2386 39.3778 17.8295 38.2472 17.0114C37.1222 16.1932 36.4943 15.1136 36.3636 13.7727H41.0341C41.0966 14.1875 41.3011 14.5085 41.6477 14.7358C42 14.9574 42.4432 15.0682 42.9773 15.0682C43.4091 15.0682 43.7642 14.9943 44.0426 14.8466C44.3267 14.6989 44.4716 14.4886 44.4773 14.2159C44.4716 13.9659 44.3466 13.767 44.1023 13.6193C43.8636 13.4716 43.4886 13.3523 42.9773 13.2614L40.6591 12.8523C39.3239 12.6193 38.3239 12.1761 37.6591 11.5227C36.9943 10.8693 36.6648 10.0284 36.6705 9C36.6648 8.09091 36.9034 7.32102 37.3864 6.69034C37.875 6.05398 38.571 5.57102 39.4744 5.24148C40.3835 4.90625 41.4602 4.73864 42.7045 4.73864C44.5966 4.73864 46.0881 5.13068 47.179 5.91477C48.2756 6.69886 48.8523 7.78409 48.9091 9.17045ZM58.8594 4.90909V8.31818H50.2344V4.90909H58.8594ZM51.9048 1.77273H56.6094V13.7898C56.6094 13.9716 56.6406 14.125 56.7031 14.25C56.7656 14.3693 56.8622 14.4602 56.9929 14.5227C57.1236 14.5795 57.2912 14.608 57.4957 14.608C57.6378 14.608 57.8026 14.5909 57.9901 14.5568C58.1832 14.5227 58.3253 14.4943 58.4162 14.4716L59.098 17.7784C58.8878 17.8409 58.5866 17.9176 58.1946 18.0085C57.8082 18.0994 57.348 18.1591 56.8139 18.1875C55.7344 18.2443 54.8281 18.1335 54.0952 17.8551C53.3622 17.571 52.8111 17.125 52.4418 16.517C52.0724 15.9091 51.8935 15.1477 51.9048 14.233V1.77273ZM66.9112 18.2386C65.5135 18.2386 64.3089 17.9716 63.2976 17.4375C62.2919 16.8977 61.5163 16.125 60.9709 15.1193C60.4311 14.108 60.1612 12.8977 60.1612 11.4886C60.1612 10.1364 60.4339 8.95455 60.9794 7.94318C61.5249 6.93182 62.2947 6.14489 63.2891 5.58239C64.2834 5.01989 65.4567 4.73864 66.8089 4.73864C67.7976 4.73864 68.6925 4.89205 69.4936 5.19886C70.2947 5.50568 70.9794 5.9517 71.5476 6.53693C72.1158 7.11648 72.5533 7.82102 72.8601 8.65057C73.1669 9.48011 73.3203 10.4148 73.3203 11.4545V12.5455H61.6271V9.95455H68.9908C68.9851 9.57955 68.8885 9.25 68.701 8.96591C68.5192 8.67614 68.272 8.4517 67.9595 8.29261C67.6527 8.12784 67.3033 8.04545 66.9112 8.04545C66.5305 8.04545 66.1811 8.12784 65.8629 8.29261C65.5447 8.4517 65.2891 8.6733 65.0959 8.95739C64.9084 9.24148 64.8089 9.57386 64.7976 9.95455V12.75C64.7976 13.1705 64.8857 13.5455 65.0618 13.875C65.2379 14.2045 65.4908 14.4631 65.8203 14.6506C66.1499 14.8381 66.5476 14.9318 67.0135 14.9318C67.3374 14.9318 67.6328 14.8864 67.8999 14.7955C68.1726 14.7045 68.4055 14.5739 68.5987 14.4034C68.7919 14.2273 68.9339 14.017 69.0249 13.7727H73.3203C73.1726 14.6818 72.8232 15.4716 72.272 16.142C71.7209 16.8068 70.9908 17.3239 70.0817 17.6932C69.1783 18.0568 68.1214 18.2386 66.9112 18.2386ZM75.2401 18V4.90909H79.8082V7.39773H79.9446C80.1832 6.47727 80.5611 5.80398 81.0781 5.37784C81.6009 4.9517 82.2116 4.73864 82.9105 4.73864C83.1151 4.73864 83.3168 4.75568 83.5156 4.78977C83.7202 4.81818 83.9162 4.8608 84.1037 4.91761V8.93182C83.8707 8.85227 83.5838 8.79261 83.2429 8.75284C82.902 8.71307 82.6094 8.69318 82.3651 8.69318C81.9048 8.69318 81.4901 8.7983 81.1207 9.00852C80.7571 9.21307 80.4702 9.50284 80.2599 9.87784C80.0497 10.2472 79.9446 10.6818 79.9446 11.1818V18H75.2401ZM90.3509 10.6364V18H85.6463V0.545454H90.1804V7.39773H90.3168C90.6122 6.5625 91.1037 5.91193 91.7912 5.44602C92.4787 4.97443 93.3054 4.73864 94.2713 4.73864C95.1974 4.73864 96.0014 4.94886 96.6832 5.36932C97.3707 5.78977 97.902 6.36932 98.277 7.10795C98.6577 7.84659 98.8452 8.69318 98.8395 9.64773V18H94.1349V10.6364C94.1406 9.98864 93.9787 9.48011 93.6491 9.1108C93.3253 8.74148 92.8622 8.55682 92.2599 8.55682C91.8793 8.55682 91.544 8.64205 91.2543 8.8125C90.9702 8.97727 90.7486 9.21591 90.5895 9.52841C90.4361 9.83523 90.3565 10.2045 90.3509 10.6364ZM109.651 12.2727V4.90909H114.355V18H109.889V15.5114H109.753C109.469 16.3466 108.972 17 108.261 17.4716C107.551 17.9375 106.707 18.1705 105.73 18.1705C104.815 18.1705 104.014 17.9602 103.327 17.5398C102.645 17.1193 102.114 16.5398 101.733 15.8011C101.358 15.0625 101.168 14.2159 101.162 13.2614V4.90909H105.866V12.2727C105.872 12.9205 106.037 13.429 106.361 13.7983C106.69 14.1676 107.151 14.3523 107.741 14.3523C108.134 14.3523 108.472 14.2699 108.756 14.1051C109.045 13.9347 109.267 13.696 109.42 13.3892C109.58 13.0767 109.656 12.7045 109.651 12.2727ZM116.68 18V0.545454H121.384V7.19318H121.452C121.623 6.75 121.873 6.34375 122.202 5.97443C122.532 5.59943 122.941 5.30114 123.43 5.07954C123.918 4.85227 124.487 4.73864 125.134 4.73864C125.998 4.73864 126.819 4.96875 127.597 5.42898C128.381 5.8892 129.018 6.61364 129.506 7.60227C130.001 8.59091 130.248 9.875 130.248 11.4545C130.248 12.9659 130.012 14.2187 129.54 15.2131C129.075 16.2074 128.45 16.9489 127.665 17.4375C126.887 17.9261 126.032 18.1705 125.1 18.1705C124.487 18.1705 123.938 18.071 123.455 17.8722C122.978 17.6676 122.569 17.392 122.228 17.0455C121.893 16.6932 121.634 16.2955 121.452 15.8523H121.35V18H116.68ZM121.282 11.4545C121.282 12.0909 121.364 12.642 121.529 13.108C121.7 13.5682 121.938 13.9261 122.245 14.1818C122.558 14.4318 122.93 14.5568 123.362 14.5568C123.793 14.5568 124.16 14.4347 124.461 14.1903C124.768 13.9403 125.001 13.5852 125.16 13.125C125.325 12.6591 125.407 12.1023 125.407 11.4545C125.407 10.8068 125.325 10.2528 125.16 9.79261C125.001 9.3267 124.768 8.97159 124.461 8.72727C124.16 8.47727 123.793 8.35227 123.362 8.35227C122.93 8.35227 122.558 8.47727 122.245 8.72727C121.938 8.97159 121.7 9.3267 121.529 9.79261C121.364 10.2528 121.282 10.8068 121.282 11.4545Z" fill="#2E3540"/>
<path d="M138.523 23.1818C137.211 23.1818 136.086 22.9943 135.148 22.6193C134.217 22.25 133.492 21.7386 132.975 21.0852C132.464 20.4375 132.177 19.6932 132.114 18.8523H136.648C136.694 19.1307 136.808 19.3551 136.989 19.5256C137.171 19.696 137.404 19.8182 137.688 19.892C137.978 19.9716 138.302 20.0114 138.66 20.0114C139.268 20.0114 139.771 19.8636 140.168 19.5682C140.572 19.2727 140.773 18.7386 140.773 17.9659V15.75H140.637C140.467 16.1932 140.205 16.571 139.853 16.8835C139.501 17.1903 139.077 17.4261 138.583 17.5909C138.089 17.75 137.546 17.8295 136.955 17.8295C136.023 17.8295 135.165 17.6136 134.381 17.1818C133.603 16.75 132.978 16.0653 132.506 15.1278C132.04 14.1903 131.808 12.9659 131.808 11.4545C131.808 9.875 132.052 8.59091 132.54 7.60227C133.035 6.61364 133.671 5.8892 134.45 5.42898C135.234 4.96875 136.058 4.73864 136.921 4.73864C137.569 4.73864 138.137 4.85227 138.626 5.07954C139.114 5.30114 139.523 5.59943 139.853 5.97443C140.183 6.34375 140.433 6.75 140.603 7.19318H140.705V4.90909H145.41V17.9659C145.41 19.0739 145.123 20.0142 144.549 20.7869C143.981 21.5653 143.18 22.1591 142.146 22.5682C141.112 22.9773 139.904 23.1818 138.523 23.1818ZM138.694 14.4886C139.126 14.4886 139.495 14.3693 139.802 14.1307C140.114 13.8864 140.353 13.5398 140.518 13.0909C140.688 12.6364 140.773 12.0909 140.773 11.4545C140.773 10.8068 140.688 10.2528 140.518 9.79261C140.353 9.3267 140.114 8.97159 139.802 8.72727C139.495 8.47727 139.126 8.35227 138.694 8.35227C138.262 8.35227 137.893 8.47727 137.586 8.72727C137.285 8.97159 137.052 9.3267 136.887 9.79261C136.728 10.2528 136.648 10.8068 136.648 11.4545C136.648 12.1023 136.728 12.6534 136.887 13.108C137.052 13.5568 137.285 13.9006 137.586 14.1392C137.893 14.3722 138.262 14.4886 138.694 14.4886ZM154.109 18.2386C152.689 18.2386 151.473 17.9574 150.462 17.3949C149.45 16.8267 148.675 16.0369 148.135 15.0256C147.595 14.0085 147.325 12.8295 147.325 11.4886C147.325 10.1477 147.595 8.97159 148.135 7.96023C148.675 6.94318 149.45 6.15341 150.462 5.59091C151.473 5.02273 152.689 4.73864 154.109 4.73864C155.53 4.73864 156.746 5.02273 157.757 5.59091C158.768 6.15341 159.544 6.94318 160.084 7.96023C160.624 8.97159 160.893 10.1477 160.893 11.4886C160.893 12.8295 160.624 14.0085 160.084 15.0256C159.544 16.0369 158.768 16.8267 157.757 17.3949C156.746 17.9574 155.53 18.2386 154.109 18.2386ZM154.143 14.7614C154.541 14.7614 154.885 14.6278 155.175 14.3608C155.464 14.0937 155.689 13.7131 155.848 13.2188C156.007 12.7244 156.087 12.1364 156.087 11.4545C156.087 10.767 156.007 10.179 155.848 9.69034C155.689 9.19602 155.464 8.81534 155.175 8.5483C154.885 8.28125 154.541 8.14773 154.143 8.14773C153.723 8.14773 153.362 8.28125 153.061 8.5483C152.76 8.81534 152.53 9.19602 152.371 9.69034C152.212 10.179 152.132 10.767 152.132 11.4545C152.132 12.1364 152.212 12.7244 152.371 13.2188C152.53 13.7131 152.76 14.0937 153.061 14.3608C153.362 14.6278 153.723 14.7614 154.143 14.7614Z" fill="#33A9E0"/>
</svg>
